# xmcd
#
# Track frame offsets: 
#        150
#        18072
#        43468
#        60122
#        78295
#        98873
#        120510
#        146576
#        166223
#        181523
#        205683
#        229427
#        252635
#        272359
#        288176
#        309497
#        325448
#
# Disc length: 4781 seconds
#
# Revision: 2
# Processed by: cddbd v1.5.2PL0 Copyright (c) Steve Scherf et al.
# Submitted via: ExactAudioCopy v1.1
#
DISCID=e012ab11
DTITLE=Various Artist - Akella Presents - vol.96 - Modrn Electric Blu
DTITLE=es  CD1
DYEAR=2016
DGENRE=Blues
TTITLE0=Steven Seagal - My God
TTITLE1=Texas Slim - Funky Love
TTITLE2=Chris Watson Band - Going Home
TTITLE3=The Mike Reilly Band - Bang, Bang, Bang
TTITLE4=Duke Robillard - Fishnet
TTITLE5=Mick Pini - More Than I Could Chew
TTITLE6=Honey Island Swamp Band - No Easy Way
TTITLE7=Jimmy Thackery And The Drivers - I Can Tell
TTITLE8=Eddie Martin - Cool And Lonesome
TTITLE9=Jimmy Morello - Silver Spoon
TTITLE10=Blues Merchants - Is This Really Even The Blues
TTITLE11=Shake Your Hips - Shake
TTITLE12=Al Basile - Housekey Blues
TTITLE13=Anders Osbourne - Give It To Me Two Times
TTITLE14=Sonny Landreth - A World Away
TTITLE15=Carl Wyatt - You're Just About To Lose Your Clown
TTITLE16=Johnny Neel - Won't Lay Me Down
EXTD=
EXTT0=
EXTT1=
EXTT2=
EXTT3=
EXTT4=
EXTT5=
EXTT6=
EXTT7=
EXTT8=
EXTT9=
EXTT10=
EXTT11=
EXTT12=
EXTT13=
EXTT14=
EXTT15=
EXTT16=
PLAYORDER=
